<?xml version="1.0" encoding="UTF-8"?>
<!DOCTYPE svg PUBLIC "-//W3C//DTD SVG 1.1//EN" "http://www.w3.org/Graphics/SVG/1.1/DTD/svg11.dtd">
<!-- Creator: CorelDRAW 2020 (64 Bit) -->
<svg xmlns="http://www.w3.org/2000/svg" xml:space="preserve" width="100mm" height="100mm" version="1.1" style="shape-rendering:geometricPrecision; text-rendering:geometricPrecision; image-rendering:optimizeQuality; fill-rule:evenodd; clip-rule:evenodd"
viewBox="0 0 10000 10000"
 xmlns:xlink="http://www.w3.org/1999/xlink"
 xmlns:xodm="http://www.corel.com/coreldraw/odm/2003">
 <defs>
  <style type="text/css">
   <![CDATA[
    .str0 {stroke:black;stroke-width:26.46;stroke-miterlimit:22.9256}
    .fil0 {fill:#373435}
   ]]>
  </style>
 </defs>
 <g id="Camada_x0020_1">
  <metadata id="CorelCorpID_0Corel-Layer"/>
  <path id="path2" class="fil0 str0" d="M7154.73 4801.51l95.2 -8.92 147.72 22.21 247 105.32 0 167.36 -247 105.32 -147.72 22.21 -95.2 -8.92 -43.13 272.34 93.3 20.94 133.62 66.77 202.36 176.49 -51.72 159.17 -267.44 23.84 -147.36 -24.52 -87.78 -37.91 -125.19 245.69 82.27 48.74 106.45 104.8 137.92 230.38 -98.38 135.4 -261.72 -59.98 -132.57 -68.85 -71.77 -63.18 -194.98 194.98 63.18 71.77 68.85 132.57 59.98 261.72 -135.4 98.38 -230.38 -137.92 -104.8 -106.45 -48.74 -82.26 -245.69 125.18 37.91 87.78 24.52 147.36 -23.84 267.44 -159.17 51.72 -176.49 -202.36 -66.77 -133.62 -20.94 -93.3 -272.34 43.14 8.93 95.19 -22.22 147.73 -105.32 246.99 -167.36 0 -105.32 -246.99 -22.21 -147.73 8.92 -95.19 -272.34 -43.14 -20.93 93.3 -66.78 133.62 -176.49 202.36 -159.17 -51.72 -23.84 -267.44 24.52 -147.36 37.91 -87.78 -245.69 -125.18 -48.74 82.26 -104.8 106.45 -230.38 137.92 -135.4 -98.38 59.98 -261.72 68.85 -132.57 63.18 -71.77 -194.98 -194.98 -71.77 63.18 -132.57 68.85 -261.72 59.98 -98.37 -135.4 137.91 -230.38 106.46 -104.8 82.26 -48.74 -125.19 -245.69 -87.78 37.91 -147.36 24.52 -267.44 -23.84 -51.72 -159.17 202.36 -176.49 133.62 -66.77 93.3 -20.94 -43.13 -272.34 -95.2 8.92 -147.72 -22.21 -247 -105.32 0 -167.36 247 -105.32 147.72 -22.21 95.2 8.92 43.13 -272.34 -93.3 -20.93 -133.62 -66.78 -202.36 -176.49 51.72 -159.17 267.44 -23.84 147.36 24.52 87.78 37.91 125.19 -245.68 -82.26 -48.74 -106.46 -104.81 -137.91 -230.38 98.37 -135.39 261.72 59.97 132.57 68.85 71.77 63.18 194.98 -194.98 -63.18 -71.77 -68.85 -132.56 -59.98 -261.73 135.4 -98.37 230.38 137.91 104.8 106.46 48.74 82.26 245.69 -125.18 -37.91 -87.79 -24.52 -147.36 23.84 -267.44 159.17 -51.72 176.49 202.36 66.78 133.62 20.93 93.3 272.34 -43.13 -8.92 -95.2 22.21 -147.72 105.32 -247 167.36 0 105.32 247 22.22 147.72 -8.93 95.2 272.34 43.13 20.94 -93.3 66.77 -133.62 176.49 -202.36 159.17 51.72 23.84 267.44 -24.52 147.36 -37.91 87.79 245.69 125.18 48.74 -82.26 104.8 -106.46 230.38 -137.91 135.4 98.37 -59.98 261.73 -68.85 132.56 -63.18 71.77 194.98 194.98 71.77 -63.18 132.57 -68.85 261.72 -59.97 98.38 135.39 -137.92 230.38 -106.45 104.81 -82.27 48.74 125.19 245.68 87.78 -37.91 147.36 -24.52 267.44 23.84 51.72 159.17 -202.36 176.49 -133.62 66.78 -93.3 20.93 43.13 272.34zm-1780.14 202.29c0,208.94 -169.44,378.38 -378.39,378.38 -208.94,0 -378.38,-169.44 -378.38,-378.38 0,-208.94 169.44,-378.39 378.38,-378.39 208.95,0 378.39,169.45 378.39,378.39l0 0z"/>
 </g>
</svg>
