<?xml version="1.0" encoding="UTF-8"?>
<!DOCTYPE svg PUBLIC "-//W3C//DTD SVG 1.1//EN" "http://www.w3.org/Graphics/SVG/1.1/DTD/svg11.dtd">
<!-- Creator: CorelDRAW 2020 (64 Bit) -->
<svg xmlns="http://www.w3.org/2000/svg" xml:space="preserve" width="100mm" height="100mm" version="1.1" style="shape-rendering:geometricPrecision; text-rendering:geometricPrecision; image-rendering:optimizeQuality; fill-rule:evenodd; clip-rule:evenodd"
viewBox="0 0 10000 10000"
 xmlns:xlink="http://www.w3.org/1999/xlink"
 xmlns:xodm="http://www.corel.com/coreldraw/odm/2003"
 inkscape:version="1.4 (86a8ad7, 2024-10-11)"
 sodipodi:docname="inomeado.svg"
 xmlns:inkscape="http://www.inkscape.org/namespaces/inkscape"
 xmlns:sodipodi="http://sodipodi.sourceforge.net/DTD/sodipodi-0.dtd"
 xmlns:svg="http://www.w3.org/2000/svg">
 <defs>
  <style type="text/css">
   <![CDATA[
    .str0 {stroke:black;stroke-width:26.46;stroke-miterlimit:22.9256}
    .fil0 {fill:#373435}
   ]]>
  </style>
 </defs>
 <g id="Camada_x0020_1">
  <metadata id="CorelCorpID_0Corel-Layer"/>
  <sodipodi:namedview id="namedview1" pagecolor="#ffffff" bordercolor="#000000" borderopacity="0.25" inkscape:showpageshadow="2" inkscape:pageopacity="0.0" inkscape:pagecheckerboard="0" inkscape:deskcolor="#d1d1d1" inkscape:document-units="mm" inkscape:zoom="0.32738847" inkscape:cx="720.85618" inkscape:cy="606.31335" inkscape:window-width="1920" inkscape:window-height="974" inkscape:window-x="-11" inkscape:window-y="-11" inkscape:window-maximized="1" inkscape:current-layer="layer1"/>
  <path id="path4" class="fil0 str0" d="M9566.61 4760.9l243.64 53.76 243.76 97.54 0 183.22 -243.76 97.53 -243.64 53.76 -18.28 232.16 232.22 91.21 225.52 134.46 -28.65 180.97 -256.05 58.2 -249.02 14.98 -54.37 226.45 215.11 126.41 201.68 168.08 -56.61 174.26 -261.99 17.43 -248.3 -24.16 -89.11 215.15 192.64 158.5 172.92 197.58 -83.17 163.25 -261.46 -23.77 -241.49 -62.7 -121.69 198.56 165.51 186.69 139.89 222.19 -107.69 148.23 -254.55 -64.38 -228.7 -99.71 -151.24 177.08 134.26 210.28 103.4 241.34 -129.55 129.56 -241.34 -103.41 -210.28 -134.26 -177.08 151.25 99.7 228.69 64.38 254.55 -148.23 107.69 -222.19 -139.89 -186.69 -165.5 -198.56 121.69 62.71 241.48 23.76 261.47 -163.25 83.17 -197.57 -172.93 -158.5 -192.63 -215.15 89.11 24.16 248.29 -17.43 262 -174.26 56.61 -168.09 -201.68 -126.41 -215.12 -226.44 54.38 -14.98 249.01 -58.2 256.06 -180.97 28.64 -134.47 -225.52 -91.2 -232.21 -232.16 18.27 -53.76 243.65 -97.53 243.75 -183.23 0 -97.53 -243.76 -53.76 -243.64 -232.16 -18.28 -91.2 232.22 -134.47 225.52 -180.97 -28.65 -58.2 -256.05 -14.98 -249.02 -226.44 -54.37 -126.41 215.11 -168.09 201.68 -174.26 -56.6 -17.43 -262 24.16 -248.3 -215.15 -89.11 -158.5 192.64 -197.57 172.92 -163.26 -83.17 23.77 -261.46 62.71 -241.49 -198.57 -121.69 -186.68 165.51 -222.2 139.89 -148.22 -107.69 64.37 -254.55 99.71 -228.7 -177.08 -151.24 -210.28 134.26 -241.34 103.41 -129.56 -129.56 103.41 -241.34 134.26 -210.28 -151.24 -177.08 -228.7 99.7 -254.55 64.38 -107.69 -148.23 139.89 -222.19 165.51 -186.69 -121.69 -198.56 -241.49 62.71 -261.46 23.76 -83.17 -163.25 172.92 -197.57 192.63 -158.5 -89.11 -215.15 -248.29 24.16 -262 -17.43 -56.6 -174.26 201.68 -168.09 215.11 -126.41 -54.38 -226.44 -249.01 -14.98 -256.05 -58.2 -28.65 -180.97 225.52 -134.47 232.21 -91.2 -18.27 -232.16 -243.64 -53.76 -243.76 -97.53 0 -183.23 243.76 -97.53 243.64 -53.76 18.27 -232.16 -232.21 -91.2 -225.52 -134.47 28.65 -180.97 256.05 -58.2 249.01 -14.98 54.38 -226.44 -215.11 -126.41 -201.68 -168.09 56.6 -174.26 262 -17.43 248.29 24.16 89.11 -215.15 -192.63 -158.5 -172.92 -197.57 83.17 -163.26 261.46 23.77 241.49 62.71 121.69 -198.56 -165.51 -186.69 -139.89 -222.2 107.69 -148.22 254.55 64.37 228.7 99.71 151.24 -177.08 -134.26 -210.28 -103.41 -241.34 129.56 -129.56 241.34 103.41 210.28 134.26 177.08 -151.24 -99.71 -228.7 -64.37 -254.55 148.22 -107.69 222.2 139.89 186.68 165.51 198.57 -121.69 -62.71 -241.49 -23.77 -261.46 163.26 -83.17 197.57 172.92 158.5 192.64 215.15 -89.11 -24.16 -248.3 17.43 -262 174.26 -56.6 168.09 201.68 126.41 215.11 226.44 -54.37 14.98 -249.02 58.2 -256.05 180.97 -28.65 134.47 225.52 91.2 232.22 232.16 -18.28 53.76 -243.64 97.53 -243.76 183.23 0 97.53 243.76 53.76 243.64 232.16 18.28 91.2 -232.22 134.47 -225.51 180.97 28.64 58.2 256.05 14.98 249.02 226.44 54.37 126.41 -215.11 168.09 -201.68 174.26 56.61 17.43 261.99 -24.16 248.3 215.15 89.11 158.5 -192.64 197.57 -172.92 163.25 83.17 -23.76 261.46 -62.71 241.49 198.56 121.69 186.69 -165.51 222.19 -139.89 148.23 107.69 -64.38 254.55 -99.7 228.7 177.08 151.24 210.28 -134.25 241.34 -103.41 129.55 129.56 -103.4 241.34 -134.26 210.28 151.24 177.08 228.7 -99.71 254.55 -64.38 107.69 148.23 -139.89 222.19 -165.51 186.69 121.69 198.56 241.49 -62.71 261.46 -23.76 83.17 163.25 -172.92 197.57 -192.64 158.51 89.11 215.15 248.3 -24.16 261.99 17.42 56.61 174.26 -201.68 168.09 -215.11 126.41 54.37 226.44 249.02 14.99 256.05 58.2 28.65 180.96 -225.52 134.47 -232.22 91.21 18.28 232.15zm-4192.03 242.91c0,-208.98 -169.41,-378.39 -378.38,-378.39 -208.98,0 -378.39,169.41 -378.39,378.39 0,208.97 169.41,378.38 378.39,378.38 208.97,0 378.38,-169.41 378.38,-378.38z"/>
 </g>
</svg>
