<?xml version="1.0" encoding="UTF-8"?>
<!DOCTYPE svg PUBLIC "-//W3C//DTD SVG 1.1//EN" "http://www.w3.org/Graphics/SVG/1.1/DTD/svg11.dtd">
<!-- Creator: CorelDRAW 2020 (64 Bit) -->
<svg xmlns="http://www.w3.org/2000/svg" xml:space="preserve" width="100mm" height="100mm" version="1.1" style="shape-rendering:geometricPrecision; text-rendering:geometricPrecision; image-rendering:optimizeQuality; fill-rule:evenodd; clip-rule:evenodd"
viewBox="0 0 10000 10000"
 xmlns:xlink="http://www.w3.org/1999/xlink"
 xmlns:xodm="http://www.corel.com/coreldraw/odm/2003">
 <defs>
  <style type="text/css">
   <![CDATA[
    .str0 {stroke:black;stroke-width:26.46;stroke-miterlimit:22.9256}
    .fil0 {fill:#373435}
   ]]>
  </style>
 </defs>
 <g id="Camada_x0020_1">
  <metadata id="CorelCorpID_0Corel-Layer"/>
  <path id="path6" class="fil0 str0" d="M5945.53 4838.9l165.77 -28.8 74.51 5.28 253.98 117.66 0 141.52 -253.98 117.66 -74.51 5.28 -165.77 -28.8 -84.38 259.7 151.04 74.14 57.17 48.07 136.32 244.47 -83.18 114.49 -274.64 -54.1 -63.38 -39.52 -117.18 -120.74 -220.91 160.51 78.61 148.76 18 72.48 -33.41 277.92 -134.6 43.73 -190.38 -205.2 -28.04 -69.23 -23.84 -166.55 -273.07 0 -23.84 166.55 -28.04 69.23 -190.38 205.2 -134.59 -43.73 -33.42 -277.92 18 -72.48 78.61 -148.76 -220.91 -160.51 -117.18 120.74 -63.38 39.52 -274.64 54.1 -83.18 -114.49 136.32 -244.47 57.18 -48.07 151.03 -74.14 -84.38 -259.7 -165.77 28.8 -74.51 -5.28 -253.98 -117.66 0 -141.52 253.98 -117.66 74.51 -5.28 165.77 28.8 84.38 -259.7 -151.03 -74.14 -57.18 -48.07 -136.32 -244.47 83.18 -114.49 274.64 54.1 63.38 39.52 117.18 120.74 220.91 -160.51 -78.61 -148.76 -18 -72.48 33.42 -277.92 134.59 -43.73 190.38 205.2 28.04 69.23 23.84 166.55 273.07 0 23.84 -166.55 28.04 -69.23 190.38 -205.2 134.6 43.73 33.41 277.92 -18 72.48 -78.61 148.76 220.91 160.51 117.18 -120.74 63.38 -39.52 274.64 -54.1 83.18 114.49 -136.32 244.47 -57.17 48.07 -151.04 74.14 84.38 259.7zm-570.95 164.9c0,-208.98 -169.41,-378.39 -378.38,-378.39 -208.98,0 -378.39,169.41 -378.39,378.39 0,208.97 169.41,378.39 378.39,378.39 208.97,0 378.38,-169.42 378.38,-378.39z"/>
 </g>
</svg>
