<?xml version="1.0" encoding="UTF-8" standalone="no"?>
<!-- Created with Inkscape (http://www.inkscape.org/) -->

<svg
   width="210mm"
   height="297mm"
   viewBox="0 0 210 297"
   version="1.1"
   id="svg1"
   inkscape:version="1.4 (86a8ad7, 2024-10-11)"
   sodipodi:docname="inomeado.svg"
   xmlns:inkscape="http://www.inkscape.org/namespaces/inkscape"
   xmlns:sodipodi="http://sodipodi.sourceforge.net/DTD/sodipodi-0.dtd"
   xmlns="http://www.w3.org/2000/svg"
   xmlns:svg="http://www.w3.org/2000/svg">
  <sodipodi:namedview
     id="namedview1"
     pagecolor="#ffffff"
     bordercolor="#000000"
     borderopacity="0.25"
     inkscape:showpageshadow="2"
     inkscape:pageopacity="0.0"
     inkscape:pagecheckerboard="0"
     inkscape:deskcolor="#d1d1d1"
     inkscape:document-units="mm"
     inkscape:zoom="0.32738847"
     inkscape:cx="720.85618"
     inkscape:cy="606.31335"
     inkscape:window-width="1920"
     inkscape:window-height="974"
     inkscape:window-x="-11"
     inkscape:window-y="-11"
     inkscape:window-maximized="1"
     inkscape:current-layer="layer1" />
  <defs
     id="defs1" />
  <g
     inkscape:label="Camada 1"
     inkscape:groupmode="layer"
     id="layer1">
    <g
       inkscape:label="Rendered Gears"
       transform="translate(114.456, 141.176)"
       id="g3">
      <path
         style="fill:none;stroke:#000000;stroke-width:0.26458333333333334"
         d="M 57.0458 -5.34617 L 59.5617 -5.58195 L 63.4657 -4.99486 L 69.9933 -2.2115 L 69.9933 2.2115 L 63.4657 4.99486 L 59.5617 5.58195 L 57.0458 5.34617 L 55.9059 12.5436 L 58.3715 13.0968 L 61.903 14.8616 L 67.2509 19.5258 L 65.8841 23.7324 L 58.816 24.3624 L 54.9216 23.7143 L 52.6017 22.7126 L 49.2934 29.2055 L 51.4674 30.4936 L 54.2808 33.2633 L 57.9256 39.3518 L 55.3258 42.9301 L 48.4089 41.3451 L 44.9054 39.5254 L 43.0086 37.8558 L 37.8558 43.0086 L 39.5254 44.9054 L 41.3451 48.4089 L 42.9301 55.3258 L 39.3518 57.9256 L 33.2633 54.2808 L 30.4936 51.4674 L 29.2055 49.2934 L 22.7126 52.6017 L 23.7143 54.9216 L 24.3624 58.816 L 23.7324 65.8841 L 19.5258 67.2509 L 14.8616 61.903 L 13.0968 58.3715 L 12.5436 55.9059 L 5.34617 57.0458 L 5.58195 59.5617 L 4.99486 63.4657 L 2.2115 69.9933 L -2.2115 69.9933 L -4.99486 63.4657 L -5.58195 59.5617 L -5.34617 57.0458 L -12.5436 55.9059 L -13.0968 58.3715 L -14.8616 61.903 L -19.5258 67.2509 L -23.7324 65.8841 L -24.3624 58.816 L -23.7143 54.9216 L -22.7126 52.6017 L -29.2055 49.2934 L -30.4936 51.4674 L -33.2633 54.2808 L -39.3518 57.9256 L -42.9301 55.3258 L -41.3451 48.4089 L -39.5254 44.9054 L -37.8558 43.0086 L -43.0086 37.8558 L -44.9054 39.5254 L -48.4089 41.3451 L -55.3258 42.9301 L -57.9256 39.3518 L -54.2808 33.2633 L -51.4674 30.4936 L -49.2934 29.2055 L -52.6017 22.7126 L -54.9216 23.7143 L -58.816 24.3624 L -65.8841 23.7324 L -67.2509 19.5258 L -61.903 14.8616 L -58.3715 13.0968 L -55.9059 12.5436 L -57.0458 5.34617 L -59.5617 5.58195 L -63.4657 4.99486 L -69.9933 2.2115 L -69.9933 -2.2115 L -63.4657 -4.99486 L -59.5617 -5.58195 L -57.0458 -5.34617 L -55.9059 -12.5436 L -58.3715 -13.0968 L -61.903 -14.8616 L -67.2509 -19.5258 L -65.8841 -23.7324 L -58.816 -24.3624 L -54.9216 -23.7143 L -52.6017 -22.7126 L -49.2934 -29.2055 L -51.4674 -30.4936 L -54.2808 -33.2633 L -57.9256 -39.3518 L -55.3258 -42.9301 L -48.4089 -41.3451 L -44.9054 -39.5254 L -43.0086 -37.8558 L -37.8558 -43.0086 L -39.5254 -44.9054 L -41.3451 -48.4089 L -42.9301 -55.3258 L -39.3518 -57.9256 L -33.2633 -54.2808 L -30.4936 -51.4674 L -29.2055 -49.2934 L -22.7126 -52.6017 L -23.7143 -54.9216 L -24.3624 -58.816 L -23.7324 -65.8841 L -19.5258 -67.2509 L -14.8616 -61.903 L -13.0968 -58.3715 L -12.5436 -55.9059 L -5.34617 -57.0458 L -5.58195 -59.5617 L -4.99486 -63.4657 L -2.2115 -69.9933 L 2.2115 -69.9933 L 4.99486 -63.4657 L 5.58195 -59.5617 L 5.34617 -57.0458 L 12.5436 -55.9059 L 13.0968 -58.3715 L 14.8616 -61.903 L 19.5258 -67.2509 L 23.7324 -65.8841 L 24.3624 -58.816 L 23.7143 -54.9216 L 22.7126 -52.6017 L 29.2055 -49.2934 L 30.4936 -51.4674 L 33.2633 -54.2808 L 39.3518 -57.9256 L 42.9301 -55.3258 L 41.3451 -48.4089 L 39.5254 -44.9054 L 37.8558 -43.0086 L 43.0086 -37.8558 L 44.9054 -39.5254 L 48.4089 -41.3451 L 55.3258 -42.9301 L 57.9256 -39.3518 L 54.2808 -33.2633 L 51.4674 -30.4936 L 49.2934 -29.2055 L 52.6017 -22.7126 L 54.9216 -23.7143 L 58.816 -24.3624 L 65.8841 -23.7324 L 67.2509 -19.5258 L 61.903 -14.8616 L 58.3715 -13.0968 L 55.9059 -12.5436 z"
         id="path2" />
      <path
         sodipodi:cx="0"
         sodipodi:cy="0"
         sodipodi:rx="10.0"
         sodipodi:ry="10.0"
         sodipodi:type="arc"
         d="m 10 0 a 10 10 0 0 1 -10 10 a 10 10 0 0 1 -10 -10 a 10 10 0 0 1 10 -10 a 10 10 0 0 1 10 10 z"
         style="fill:none;stroke:#000000;stroke-width:0.26458333333333334"
         id="path3" />
    </g>
    <g
       inkscape:label="Rendered Gears"
       transform="translate(102.43468,142.13618)"
       id="g5">
      <path
         style="fill:none;stroke:#000000;stroke-width:0.264583"
         d="m 120.787,-6.41942 6.439,1.42071 6.442,2.57757 v 4.84228 l -6.442,2.57757 -6.439,1.42071 -0.483,6.13548 6.137,2.4104 5.96,3.5537 -0.757,4.7826 -6.767,1.5381 -6.581,0.396 -1.437,5.9844 5.685,3.3408 5.33,4.4422 -1.496,4.6053 -6.924,0.4606 -6.562,-0.6385 -2.355,5.686 5.091,4.1889 4.57,5.2215 -2.198,4.3144 -6.91,-0.6281 -6.382,-1.6572 -3.216,5.2476 4.374,4.9338 3.697,5.8721 -2.846,3.9174 -6.7273,-1.7014 -6.044,-2.6351 -3.997,4.6799 3.5481,5.5573 2.7329,6.3781 -3.424,3.424 -6.3781,-2.7329 -5.5573,-3.5481 -4.6799,3.997 2.6351,6.044 1.7014,6.7273 -3.9174,2.846 -5.8721,-3.697 -4.9338,-4.374 -5.2476,3.216 1.6572,6.382 0.6281,6.91 -4.3144,2.198 -5.2215,-4.57 -4.1889,-5.091 -5.686,2.355 0.6385,6.562 -0.4606,6.924 -4.6053,1.496 -4.4422,-5.33 -3.3408,-5.685 -5.9844,1.437 -0.396,6.581 -1.5381,6.767 -4.7826,0.757 -3.5537,-5.96 -2.4104,-6.137 -6.13548,0.483 -1.42071,6.439 -2.57757,6.442 h -4.84228 l -2.57757,-6.442 -1.42071,-6.439 -6.13548,-0.483 -2.4104,6.137 -3.5537,5.96 -4.7826,-0.757 -1.5381,-6.767 -0.396,-6.581 -5.9844,-1.437 -3.3408,5.685 -4.4422,5.33 -4.6053,-1.496 -0.4606,-6.924 0.6385,-6.562 -5.686,-2.355 -4.1889,5.091 -5.2215,4.57 -4.3144,-2.198 0.6281,-6.91 1.6572,-6.382 -5.2476,-3.216 -4.9338,4.374 -5.8721,3.697 -3.9174,-2.846 1.7014,-6.7273 2.6351,-6.044 -4.6799,-3.997 -5.5573,3.5481 -6.3781,2.7329 -3.424,-3.424 2.7329,-6.3781 3.5481,-5.5573 -3.997,-4.6799 -6.044,2.6351 -6.7273,1.7014 -2.846,-3.9174 3.697,-5.8721 4.374,-4.9338 -3.216,-5.2476 -6.382,1.6572 -6.91,0.6281 -2.198,-4.3144 4.57,-5.2215 5.091,-4.1889 -2.355,-5.686 -6.562,0.6385 -6.924,-0.4606 -1.496,-4.6053 5.33,-4.4422 5.685,-3.3408 -1.437,-5.9844 -6.581,-0.396 -6.767,-1.5381 -0.757,-4.7826 5.96,-3.5537 6.137,-2.4104 -0.483,-6.13548 -6.439,-1.42071 -6.442,-2.57757 v -4.84228 l 6.442,-2.57757 6.439,-1.42071 0.483,-6.13548 -6.137,-2.4104 -5.96,-3.5537 0.757,-4.7826 6.767,-1.5381 6.581,-0.396 1.437,-5.9844 -5.685,-3.3408 -5.33,-4.4422 1.496,-4.6053 6.924,-0.4606 6.562,0.6385 2.355,-5.686 -5.091,-4.1889 -4.57,-5.2215 2.198,-4.3144 6.91,0.6281 6.382,1.6572 3.216,-5.2476 -4.374,-4.9338 -3.697,-5.8721 2.846,-3.9174 6.7273,1.7014 6.044,2.6351 3.997,-4.6799 -3.5481,-5.5573 -2.7329,-6.3781 3.424,-3.424 6.3781,2.7329 5.5573,3.5481 4.6799,-3.997 -2.6351,-6.044 -1.7014,-6.7273 3.9174,-2.846 5.8721,3.697 4.9338,4.374 5.2476,-3.216 -1.6572,-6.382 -0.6281,-6.91 4.3144,-2.198 5.2215,4.57 4.1889,5.091 5.686,-2.355 -0.6385,-6.562 0.4606,-6.924 4.6053,-1.496 4.4422,5.33 3.3408,5.685 5.9844,-1.437 0.396,-6.581 1.5381,-6.767 4.7826,-0.757 3.5537,5.96 2.4104,6.137 6.13548,-0.483 1.42071,-6.439 2.57757,-6.442 h 4.84228 l 2.57757,6.442 1.42071,6.439 6.13548,0.483 2.4104,-6.137 3.5537,-5.96 4.7826,0.757 1.5381,6.767 0.396,6.581 5.9844,1.437 3.3408,-5.685 4.4422,-5.33 4.6053,1.496 0.4606,6.924 -0.6385,6.562 5.686,2.355 4.1889,-5.091 5.2215,-4.57 4.3144,2.198 -0.6281,6.91 -1.6572,6.382 5.2476,3.216 4.9338,-4.374 5.8721,-3.697 3.9174,2.846 -1.7014,6.7273 -2.6351,6.044 4.6799,3.997 5.5573,-3.5481 6.3781,-2.7329 3.424,3.424 -2.7329,6.3781 -3.5481,5.5573 3.997,4.6799 6.044,-2.6351 6.7273,-1.7014 2.846,3.9174 -3.697,5.8721 -4.374,4.9338 3.216,5.2476 6.382,-1.6572 6.91,-0.6281 2.198,4.3144 -4.57,5.2215 -5.091,4.1889 2.355,5.686 6.562,-0.6385 6.924,0.4606 1.496,4.6053 -5.33,4.4422 -5.685,3.3408 1.437,5.9844 6.581,0.396 6.767,1.5381 0.757,4.7826 -5.96,3.5537 -6.137,2.4104 z"
         id="path4" />
      <circle
         style="fill:none;stroke:#000000;stroke-width:0.264583"
         id="path5"
         cx="0"
         cy="0"
         r="10" />
    </g>
    <g
       inkscape:label="Rendered Gears"
       transform="translate(-101.13307,200.05621)"
       id="g7">
      <path
         style="fill:none;stroke:#000000;stroke-width:0.264583"
         d="m 25.0891,-4.35798 4.381,-0.76097 1.969,0.13949 6.7123,3.10946 v 3.74 l -6.7123,3.10946 -1.969,0.13949 -4.381,-0.76097 -2.23,6.86332 3.9915,1.9594 1.511,1.2703 3.6027,6.461 -2.1983,3.0257 -7.2581,-1.4298 -1.675,-1.0445 -3.0969,-3.1907 -5.8383,4.2418 2.0775,3.9314 0.4758,1.9157 -0.8831,7.3447 -3.557,1.1557 L 4.97946,31.4391 4.23834,29.6095 3.60828,25.2079 h -7.21656 l -0.63006,4.4016 -0.74112,1.8296 -5.03144,5.4229 -3.557,-1.1557 -0.8831,-7.3447 0.4758,-1.9157 2.0775,-3.9314 -5.8383,-4.2418 -3.0969,3.1907 -1.675,1.0445 -7.2581,1.4298 -2.1983,-3.0257 3.6027,-6.461 1.511,-1.2703 3.9915,-1.9594 -2.23,-6.86332 -4.381,0.76097 -1.969,-0.13949 L -38.1514,1.87 v -3.74 l 6.7123,-3.10946 1.969,-0.13949 4.381,0.76097 2.23,-6.86332 -3.9915,-1.9594 -1.511,-1.2703 -3.6027,-6.461 2.1983,-3.0257 7.2581,1.4298 1.675,1.0445 3.0969,3.1907 5.8383,-4.2418 -2.0775,-3.9314 -0.4758,-1.9157 0.8831,-7.3447 3.557,-1.1557 5.03144,5.4229 0.74112,1.8296 0.63006,4.4016 h 7.21656 l 0.63006,-4.4016 0.74112,-1.8296 5.03144,-5.4229 3.557,1.1557 0.8831,7.3447 -0.4758,1.9157 -2.0775,3.9314 5.8383,4.2418 3.0969,-3.1907 1.675,-1.0445 7.2581,-1.4298 2.1983,3.0257 -3.6027,6.461 -1.511,1.2703 -3.9915,1.9594 z"
         id="path6" />
      <circle
         style="fill:none;stroke:#000000;stroke-width:0.264583"
         id="path7"
         cx="0"
         cy="0"
         r="10" />
    </g>
  </g>
</svg>
